<svg width="20" height="20" viewBox="0 0 20 20" fill="none" xmlns="http://www.w3.org/2000/svg">
<path d="M10.0002 6.78585C9.5781 6.78585 9.16013 6.86899 8.77015 7.03053C8.38018 7.19206 8.02584 7.42882 7.72736 7.7273C7.42889 8.02577 7.19212 8.38011 7.03059 8.77009C6.86906 9.16006 6.78592 9.57803 6.78592 10.0001C6.78592 10.4222 6.86906 10.8402 7.03059 11.2302C7.19212 11.6202 7.42889 11.9745 7.72736 12.273C8.02584 12.5715 8.38018 12.8082 8.77015 12.9698C9.16013 13.1313 9.5781 13.2144 10.0002 13.2144C10.8527 13.2144 11.6703 12.8758 12.273 12.273C12.8758 11.6702 13.2145 10.8526 13.2145 10.0001C13.2145 9.14766 12.8758 8.33009 12.273 7.7273C11.6703 7.1245 10.8527 6.78585 10.0002 6.78585ZM7.85735 10.0001C7.85735 9.71874 7.91277 9.44009 8.02046 9.1801C8.12815 8.92012 8.28599 8.68389 8.48498 8.48491C8.68396 8.28593 8.92019 8.12809 9.18017 8.0204C9.44015 7.91271 9.7188 7.85728 10.0002 7.85728C10.2816 7.85728 10.5603 7.91271 10.8202 8.0204C11.0802 8.12809 11.3165 8.28593 11.5154 8.48491C11.7144 8.68389 11.8723 8.92012 11.9799 9.1801C12.0876 9.44009 12.1431 9.71874 12.1431 10.0001C12.1431 10.5685 11.9173 11.1135 11.5154 11.5154C11.1136 11.9172 10.5685 12.143 10.0002 12.143C9.43188 12.143 8.88684 11.9172 8.48498 11.5154C8.08311 11.1135 7.85735 10.5685 7.85735 10.0001ZM15.5073 15.9966L14.2731 15.4544C14.0974 15.3781 13.9063 15.3439 13.7151 15.3546C13.5238 15.3652 13.3377 15.4205 13.1716 15.5159C12.8381 15.7087 12.6252 16.0494 12.5831 16.433L12.4345 17.7759C12.4198 17.9109 12.3637 18.0381 12.2737 18.1399C12.1838 18.2417 12.0645 18.3132 11.9323 18.3444C10.6615 18.6465 9.3375 18.6465 8.06663 18.3444C7.93456 18.313 7.81545 18.2415 7.72567 18.1397C7.63588 18.0379 7.57982 17.9108 7.5652 17.7759L7.41663 16.4351C7.39535 16.2464 7.33012 16.0654 7.22616 15.9065C7.12221 15.7475 6.98243 15.6152 6.81806 15.5201C6.65378 15.4255 6.46963 15.3707 6.28035 15.36C6.09108 15.3494 5.90193 15.3832 5.72806 15.4587L4.49378 16.0009C4.369 16.0557 4.23027 16.0703 4.0968 16.0428C3.96332 16.0153 3.8417 15.947 3.74878 15.8473C2.86111 14.8947 2.20013 13.754 1.8152 12.5101C1.77438 12.3794 1.77543 12.2392 1.81821 12.1091C1.86098 11.9789 1.94334 11.8654 2.05378 11.7844L3.14449 10.9787C3.29804 10.8659 3.42289 10.7185 3.50894 10.5485C3.59499 10.3785 3.63983 10.1907 3.63983 10.0001C3.63983 9.8096 3.59499 9.62174 3.50894 9.45174C3.42289 9.28174 3.29804 9.13438 3.14449 9.02157L2.05378 8.218C1.9432 8.13693 1.86074 8.02331 1.81796 7.89305C1.77518 7.76279 1.77422 7.62241 1.8152 7.49157C2.20013 6.24849 2.86169 5.10877 3.7502 4.158C3.84321 4.05843 3.96487 3.99023 4.09835 3.96285C4.23182 3.93546 4.3705 3.95024 4.4952 4.00514L5.72378 4.54585C5.89859 4.62109 6.08858 4.65436 6.27855 4.643C6.46853 4.63165 6.6532 4.57598 6.81781 4.48045C6.98241 4.38493 7.12236 4.2522 7.22647 4.09289C7.33058 3.93357 7.39595 3.7521 7.41735 3.563L7.56735 2.22157C7.58214 2.08499 7.63936 1.95649 7.73097 1.85412C7.82258 1.75175 7.94396 1.68067 8.07806 1.65085C8.70663 1.51085 9.35044 1.43681 10.0095 1.42871C10.6538 1.43585 11.2952 1.51085 11.9238 1.65085C12.058 1.68071 12.1794 1.7519 12.2711 1.85441C12.3627 1.95692 12.4198 2.08558 12.4345 2.22228L12.5838 3.56371C12.6158 3.86126 12.7566 4.13649 12.9791 4.3366C13.2016 4.53671 13.4902 4.6476 13.7895 4.648C13.9559 4.648 14.1209 4.613 14.2752 4.54514L15.5038 4.00443C15.6285 3.94953 15.7672 3.93475 15.9006 3.96213C16.0341 3.98952 16.1558 4.05771 16.2488 4.15728C17.137 5.10812 17.7983 6.24784 18.1831 7.49085C18.224 7.62152 18.223 7.7617 18.1804 7.89181C18.1377 8.02192 18.0555 8.13546 17.9452 8.21657L16.8559 9.02157C16.5452 9.25014 16.3573 9.61371 16.3573 10.0001C16.3573 10.3859 16.5452 10.7494 16.8566 10.9787L17.9466 11.783C18.1723 11.9501 18.2681 12.2416 18.1852 12.5094C17.7998 13.752 17.1388 14.8915 16.2516 15.843C16.1587 15.9427 16.0371 16.011 15.9036 16.0385C15.7701 16.066 15.6321 16.0514 15.5073 15.9966ZM11.6159 15.8551C11.7862 15.3213 12.149 14.8699 12.6338 14.5887C12.9455 14.4091 13.2951 14.3051 13.6544 14.2851C14.0136 14.2651 14.3726 14.3297 14.7023 14.4737L15.6623 14.8951C16.2785 14.1808 16.7557 13.3576 17.0695 12.468L16.2202 11.8416C15.9308 11.6296 15.6953 11.3517 15.5329 11.0318C15.3704 10.7119 15.2856 10.3582 15.2852 9.99942C15.2852 9.26585 15.6402 8.58514 16.2188 8.15943L16.2202 8.15871L17.0681 7.53228C16.754 6.64284 16.2765 5.81991 15.6602 5.10585L14.7081 5.52443L14.7066 5.52514C14.4166 5.65371 14.1045 5.71943 13.7881 5.71943C13.2253 5.71889 12.6824 5.51075 12.2636 5.13485C11.8447 4.75896 11.5793 4.24174 11.5181 3.68228V3.68085L11.4016 2.638C10.9421 2.5525 10.4761 2.50638 10.0088 2.50014C9.52782 2.50681 9.05759 2.55276 8.59806 2.638L8.48163 3.68157C8.44156 4.03759 8.31853 4.37925 8.12244 4.6791C7.92635 4.97894 7.66265 5.22861 7.35255 5.40805C7.04245 5.58748 6.69459 5.69168 6.3369 5.71226C5.97922 5.73284 5.6217 5.66924 5.29306 5.52657L4.33878 5.10657C3.72244 5.82062 3.24496 6.64355 2.93092 7.533L3.78092 8.15943C4.06959 8.37182 4.30427 8.64912 4.46601 8.96893C4.62776 9.28874 4.71203 9.64211 4.71203 10.0005C4.71203 10.3589 4.62776 10.7122 4.46601 11.0321C4.30427 11.3519 4.06959 11.6292 3.78092 11.8416L2.93092 12.4687C3.24427 13.3596 3.72152 14.184 4.33806 14.8994L5.29878 14.478C5.62649 14.3349 5.9832 14.2707 6.34023 14.2906C6.69726 14.3104 7.04466 14.4138 7.35449 14.5923C7.66407 14.7711 7.92739 15.0201 8.12327 15.3192C8.31915 15.6183 8.44214 15.9592 8.48235 16.3144V16.318L8.59806 17.3637C9.52449 17.5459 10.4766 17.5459 11.4031 17.3637L11.5188 16.3159C11.5359 16.1578 11.5688 16.0042 11.6173 15.8551" fill="#464646"/>
</svg>
