<svg width="20" height="20" viewBox="0 0 20 20" fill="none" xmlns="http://www.w3.org/2000/svg">
<path d="M9.72565 15.7925L10.1616 16.4028L9.72565 15.7925ZM9.76984 15.761L9.33783 15.1479L9.76984 15.761ZM12.1432 15.0004L12.148 15.7504L12.1432 15.0004ZM6.16455 16.2589L6.86091 16.5374L6.16455 16.2589ZM7.55003 17.3465L7.11411 16.7362L7.55003 17.3465ZM18.1663 12.006L18.886 12.2171L18.1663 12.006ZM15.3403 14.832L15.5514 15.5517L15.3403 14.832ZM3.94301 2.12113L4.2835 2.78939L3.94301 2.12113ZM2.12211 3.94203L2.79036 4.28252L2.12211 3.94203ZM16.0596 2.12113L15.7191 2.78939L16.0596 2.12113ZM17.8805 3.94203L17.2122 4.28252L17.8805 3.94203ZM6.66797 9.25033C6.25376 9.25033 5.91797 9.58611 5.91797 10.0003C5.91797 10.4145 6.25376 10.7503 6.66797 10.7503V9.25033ZM13.3346 10.7503C13.7488 10.7503 14.0846 10.4145 14.0846 10.0003C14.0846 9.58611 13.7488 9.25033 13.3346 9.25033V10.7503ZM10.0013 5.91699C9.58709 5.91699 9.2513 6.25278 9.2513 6.66699C9.2513 7.08121 9.58709 7.41699 10.0013 7.41699V5.91699ZM13.3346 7.41699C13.7488 7.41699 14.0846 7.08121 14.0846 6.66699C14.0846 6.25278 13.7488 5.91699 13.3346 5.91699V7.41699ZM11.668 0.916992H8.33463V2.41699H11.668V0.916992ZM0.917969 8.33366V11.8573H2.41797V8.33366H0.917969ZM19.0846 9.32051V8.33366H17.5846V9.32051H19.0846ZM4.81102 15.7503H5.31248V14.2503H4.81102V15.7503ZM7.98596 17.9568L10.1616 16.4028L9.28972 15.1822L7.11411 16.7362L7.98596 17.9568ZM12.1975 15.7503H12.6548V14.2503H12.1975V15.7503ZM10.1616 16.4028C10.1845 16.3864 10.1934 16.3801 10.2019 16.3741L9.33783 15.1479C9.32451 15.1573 9.31115 15.1669 9.28972 15.1822L10.1616 16.4028ZM12.1975 14.2503C12.1711 14.2503 12.1547 14.2503 12.1384 14.2504L12.148 15.7504C12.1584 15.7503 12.1693 15.7503 12.1975 15.7503V14.2503ZM10.2019 16.3741C10.7718 15.9725 11.4509 15.7549 12.148 15.7504L12.1384 14.2504C11.1352 14.2569 10.1579 14.57 9.33783 15.1479L10.2019 16.3741ZM5.31248 15.7503C5.43113 15.7503 5.51226 15.8702 5.46819 15.9803L6.86091 16.5374C7.29909 15.442 6.49233 14.2503 5.31248 14.2503V15.7503ZM5.46819 15.9803C4.84961 17.5268 6.63062 18.9249 7.98596 17.9568L7.11411 16.7362C7.06664 16.7701 7.03386 16.7733 7.01215 16.7721C6.98394 16.7705 6.94767 16.7588 6.91307 16.7316C6.87847 16.7045 6.85844 16.672 6.85024 16.645C6.84393 16.6242 6.83925 16.5916 6.86091 16.5374L5.46819 15.9803ZM17.5846 9.32051C17.5846 10.7809 17.577 11.3503 17.4466 11.795L18.886 12.2171C19.0923 11.5136 19.0846 10.6754 19.0846 9.32051H17.5846ZM12.6548 15.7503C14.0097 15.7503 14.8479 15.758 15.5514 15.5517L15.1293 14.1123C14.6846 14.2427 14.1152 14.2503 12.6548 14.2503V15.7503ZM17.4466 11.795C17.1192 12.9116 16.246 13.7849 15.1293 14.1123L15.5514 15.5517C17.1582 15.0805 18.4148 13.8239 18.886 12.2171L17.4466 11.795ZM0.917969 11.8573C0.917969 14.0073 2.66094 15.7503 4.81102 15.7503V14.2503C3.48937 14.2503 2.41797 13.1789 2.41797 11.8573H0.917969ZM8.33463 0.916992C7.18023 0.916992 6.26933 0.916409 5.5369 0.97625C4.79572 1.03681 4.17152 1.16296 3.60252 1.45288L4.2835 2.78939C4.6058 2.62517 5.01063 2.52425 5.65905 2.47127C6.31623 2.41758 7.15548 2.41699 8.33463 2.41699V0.916992ZM2.41797 8.33366C2.41797 7.15451 2.41855 6.31525 2.47225 5.65807C2.52522 5.00965 2.62614 4.60482 2.79036 4.28252L1.45385 3.60154C1.16393 4.17054 1.03778 4.79475 0.977227 5.53593C0.917385 6.26835 0.917969 7.17926 0.917969 8.33366H2.41797ZM3.60252 1.45288C2.67739 1.92425 1.92523 2.67641 1.45385 3.60154L2.79036 4.28252C3.11793 3.63964 3.64061 3.11695 4.2835 2.78939L3.60252 1.45288ZM11.668 2.41699C12.8471 2.41699 13.6864 2.41758 14.3436 2.47127C14.992 2.52425 15.3968 2.62517 15.7191 2.78939L16.4001 1.45288C15.8311 1.16296 15.2069 1.03681 14.4657 0.97625C13.7333 0.916409 12.8224 0.916992 11.668 0.916992V2.41699ZM19.0846 8.33366C19.0846 7.17926 19.0852 6.26835 19.0254 5.53593C18.9648 4.79475 18.8387 4.17054 18.5487 3.60154L17.2122 4.28252C17.3765 4.60482 17.4774 5.00965 17.5304 5.65807C17.5841 6.31525 17.5846 7.15451 17.5846 8.33366H19.0846ZM15.7191 2.78939C16.362 3.11695 16.8847 3.63964 17.2122 4.28252L18.5487 3.60154C18.0774 2.67641 17.3252 1.92425 16.4001 1.45288L15.7191 2.78939ZM6.66797 10.7503H13.3346V9.25033H6.66797V10.7503ZM10.0013 7.41699H13.3346V5.91699H10.0013V7.41699Z" fill="#464646"/>
</svg>
