<svg width="20" height="20" viewBox="0 0 20 20" fill="none" xmlns="http://www.w3.org/2000/svg">
<path d="M11.6654 5.08301C11.2512 5.08301 10.9154 5.41879 10.9154 5.83301C10.9154 6.24722 11.2512 6.58301 11.6654 6.58301V5.08301ZM16.6654 6.58301C17.0796 6.58301 17.4154 6.24722 17.4154 5.83301C17.4154 5.41879 17.0796 5.08301 16.6654 5.08301V6.58301ZM13.4154 8.33301C13.4154 8.74722 13.7512 9.08301 14.1654 9.08301C14.5796 9.08301 14.9154 8.74722 14.9154 8.33301H13.4154ZM14.9154 3.33301C14.9154 2.91879 14.5796 2.58301 14.1654 2.58301C13.7512 2.58301 13.4154 2.91879 13.4154 3.33301H14.9154ZM5.83203 7.58301C5.43348 7.58301 5.17214 7.5826 4.97116 7.56889C4.77692 7.55564 4.69443 7.5325 4.6479 7.51323L4.07388 8.89905C4.33364 9.00665 4.59844 9.04695 4.86905 9.06541C5.13293 9.08341 5.45401 9.08301 5.83203 9.08301V7.58301ZM2.58203 5.83301C2.58203 6.21103 2.58163 6.53211 2.59963 6.79599C2.61809 7.0666 2.65839 7.3314 2.76599 7.59116L4.15181 7.01713C4.13254 6.97061 4.1094 6.88812 4.09615 6.69388C4.08244 6.4929 4.08203 6.23155 4.08203 5.83301H2.58203ZM4.6479 7.51323C4.4233 7.42019 4.24484 7.24174 4.15181 7.01713L2.76599 7.59116C3.01127 8.18331 3.48173 8.65377 4.07388 8.89905L4.6479 7.51323ZM7.58203 5.83301C7.58203 6.23155 7.58162 6.4929 7.56791 6.69388C7.55466 6.88812 7.53153 6.97061 7.51225 7.01713L8.89807 7.59116C9.00567 7.3314 9.04597 7.0666 9.06443 6.79599C9.08244 6.53211 9.08203 6.21103 9.08203 5.83301H7.58203ZM5.83203 9.08301C6.21005 9.08301 6.53113 9.08341 6.79501 9.06541C7.06562 9.04695 7.33042 9.00665 7.59018 8.89905L7.01616 7.51323C6.96963 7.5325 6.88715 7.55564 6.6929 7.56889C6.49193 7.5826 6.23058 7.58301 5.83203 7.58301V9.08301ZM7.51225 7.01713C7.41922 7.24174 7.24077 7.42019 7.01616 7.51323L7.59018 8.89905C8.18233 8.65377 8.6528 8.18331 8.89807 7.59116L7.51225 7.01713ZM5.83203 4.08301C6.23058 4.08301 6.49193 4.08341 6.6929 4.09713C6.88715 4.11038 6.96963 4.13351 7.01616 4.15278L7.59018 2.76697C7.33042 2.65937 7.06563 2.61907 6.79501 2.60061C6.53113 2.5826 6.21005 2.58301 5.83203 2.58301V4.08301ZM9.08203 5.83301C9.08203 5.45498 9.08244 5.13391 9.06443 4.87003C9.04597 4.59941 9.00567 4.33462 8.89807 4.07486L7.51225 4.64888C7.53153 4.69541 7.55466 4.77789 7.56791 4.97213C7.58162 5.17311 7.58203 5.43446 7.58203 5.83301H9.08203ZM7.01616 4.15278C7.24077 4.24582 7.41922 4.42427 7.51225 4.64888L8.89807 4.07486C8.6528 3.4827 8.18233 3.01224 7.59018 2.76697L7.01616 4.15278ZM5.83203 2.58301C5.45401 2.58301 5.13293 2.5826 4.86905 2.60061C4.59844 2.61907 4.33364 2.65937 4.07388 2.76697L4.6479 4.15278C4.69443 4.13351 4.77692 4.11038 4.97116 4.09713C5.17214 4.08341 5.43348 4.08301 5.83203 4.08301V2.58301ZM4.08203 5.83301C4.08203 5.43446 4.08244 5.17311 4.09615 4.97214C4.1094 4.77789 4.13254 4.69541 4.15181 4.64888L2.76599 4.07486C2.65839 4.33462 2.61809 4.59941 2.59963 4.87003C2.58163 5.13391 2.58203 5.45498 2.58203 5.83301H4.08203ZM4.07388 2.76697C3.48173 3.01224 3.01127 3.4827 2.76599 4.07486L4.15181 4.64888C4.24484 4.42427 4.4233 4.24582 4.6479 4.15278L4.07388 2.76697ZM11.6654 6.58301H16.6654V5.08301H11.6654V6.58301ZM14.9154 8.33301V3.33301H13.4154V8.33301H14.9154ZM5.83203 15.9163C5.43348 15.9163 5.17214 15.9159 4.97116 15.9022C4.77692 15.889 4.69443 15.8658 4.6479 15.8466L4.07388 17.2324C4.33364 17.34 4.59844 17.3803 4.86905 17.3987C5.13293 17.4167 5.45401 17.4163 5.83203 17.4163V15.9163ZM2.58203 14.1663C2.58203 14.5444 2.58163 14.8654 2.59963 15.1293C2.61809 15.3999 2.65839 15.6647 2.76599 15.9245L4.15181 15.3505C4.13254 15.3039 4.1094 15.2215 4.09615 15.0272C4.08244 14.8262 4.08203 14.5649 4.08203 14.1663H2.58203ZM4.6479 15.8466C4.4233 15.7535 4.24484 15.5751 4.15181 15.3505L2.76599 15.9245C3.01127 16.5166 3.48173 16.9871 4.07388 17.2324L4.6479 15.8466ZM7.58203 14.1663C7.58203 14.5649 7.58162 14.8262 7.56791 15.0272C7.55466 15.2215 7.53153 15.3039 7.51225 15.3505L8.89807 15.9245C9.00567 15.6647 9.04597 15.3999 9.06443 15.1293C9.08244 14.8654 9.08203 14.5444 9.08203 14.1663H7.58203ZM5.83203 17.4163C6.21005 17.4163 6.53113 17.4167 6.79501 17.3987C7.06562 17.3803 7.33042 17.34 7.59018 17.2324L7.01616 15.8466C6.96963 15.8658 6.88715 15.889 6.6929 15.9022C6.49193 15.9159 6.23058 15.9163 5.83203 15.9163V17.4163ZM7.51225 15.3505C7.41922 15.5751 7.24077 15.7535 7.01616 15.8466L7.59018 17.2324C8.18233 16.9871 8.6528 16.5166 8.89807 15.9245L7.51225 15.3505ZM5.83203 12.4163C6.23058 12.4163 6.49193 12.4167 6.6929 12.4305C6.88715 12.4437 6.96963 12.4668 7.01616 12.4861L7.59018 11.1003C7.33042 10.9927 7.06562 10.9524 6.79501 10.9339C6.53113 10.9159 6.21005 10.9163 5.83203 10.9163V12.4163ZM9.08203 14.1663C9.08203 13.7883 9.08244 13.4672 9.06443 13.2034C9.04597 12.9327 9.00567 12.6679 8.89807 12.4082L7.51225 12.9822C7.53153 13.0287 7.55466 13.1112 7.56791 13.3055C7.58162 13.5064 7.58203 13.7678 7.58203 14.1663H9.08203ZM7.01616 12.4861C7.24077 12.5792 7.41922 12.7576 7.51225 12.9822L8.89807 12.4082C8.6528 11.816 8.18233 11.3456 7.59018 11.1003L7.01616 12.4861ZM5.83203 10.9163C5.45401 10.9163 5.13293 10.9159 4.86905 10.9339C4.59844 10.9524 4.33364 10.9927 4.07388 11.1003L4.6479 12.4861C4.69443 12.4668 4.77692 12.4437 4.97116 12.4305C5.17214 12.4167 5.43348 12.4163 5.83203 12.4163V10.9163ZM4.08203 14.1663C4.08203 13.7678 4.08244 13.5064 4.09615 13.3055C4.1094 13.1112 4.13254 13.0287 4.15181 12.9822L2.76599 12.4082C2.65839 12.6679 2.61809 12.9327 2.59963 13.2034C2.58163 13.4672 2.58203 13.7883 2.58203 14.1663H4.08203ZM4.07388 11.1003C3.48173 11.3456 3.01127 11.816 2.76599 12.4082L4.15181 12.9822C4.24484 12.7576 4.4233 12.5792 4.6479 12.4861L4.07388 11.1003ZM14.1654 15.9163C13.7668 15.9163 13.5055 15.9159 13.3045 15.9022C13.1103 15.889 13.0278 15.8658 12.9812 15.8466L12.4072 17.2324C12.667 17.34 12.9318 17.3803 13.2024 17.3987C13.4663 17.4167 13.7873 17.4163 14.1654 17.4163V15.9163ZM10.9154 14.1663C10.9154 14.5444 10.915 14.8654 10.933 15.1293C10.9514 15.3999 10.9917 15.6647 11.0993 15.9245L12.4851 15.3505C12.4659 15.3039 12.4427 15.2215 12.4295 15.0272C12.4158 14.8262 12.4154 14.5649 12.4154 14.1663H10.9154ZM12.9812 15.8466C12.7566 15.7535 12.5782 15.5751 12.4851 15.3505L11.0993 15.9245C11.3446 16.5166 11.8151 16.9871 12.4072 17.2324L12.9812 15.8466ZM15.9154 14.1663C15.9154 14.5649 15.915 14.8262 15.9012 15.0272C15.888 15.2215 15.8649 15.3039 15.8456 15.3505L17.2314 15.9245C17.339 15.6647 17.3793 15.3999 17.3978 15.1293C17.4158 14.8654 17.4154 14.5444 17.4154 14.1663H15.9154ZM14.1654 17.4163C14.5434 17.4163 14.8645 17.4167 15.1283 17.3987C15.399 17.3803 15.6638 17.34 15.9235 17.2324L15.3495 15.8466C15.303 15.8658 15.2205 15.889 15.0262 15.9022C14.8253 15.9159 14.5639 15.9163 14.1654 15.9163V17.4163ZM15.8456 15.3505C15.7526 15.5751 15.5741 15.7535 15.3495 15.8466L15.9235 17.2324C16.5157 16.9871 16.9861 16.5166 17.2314 15.9245L15.8456 15.3505ZM14.1654 12.4163C14.5639 12.4163 14.8253 12.4167 15.0262 12.4305C15.2205 12.4437 15.303 12.4668 15.3495 12.4861L15.9235 11.1003C15.6638 10.9927 15.399 10.9524 15.1283 10.9339C14.8645 10.9159 14.5434 10.9163 14.1654 10.9163V12.4163ZM17.4154 14.1663C17.4154 13.7883 17.4158 13.4672 17.3978 13.2034C17.3793 12.9327 17.339 12.6679 17.2314 12.4082L15.8456 12.9822C15.8649 13.0287 15.888 13.1112 15.9012 13.3055C15.915 13.5064 15.9154 13.7678 15.9154 14.1663H17.4154ZM15.3495 12.4861C15.5741 12.5792 15.7526 12.7576 15.8456 12.9822L17.2314 12.4082C16.9861 11.816 16.5157 11.3456 15.9235 11.1003L15.3495 12.4861ZM14.1654 10.9163C13.7873 10.9163 13.4663 10.9159 13.2024 10.9339C12.9318 10.9524 12.667 10.9927 12.4072 11.1003L12.9812 12.4861C13.0278 12.4668 13.1103 12.4437 13.3045 12.4305C13.5055 12.4167 13.7668 12.4163 14.1654 12.4163V10.9163ZM12.4154 14.1663C12.4154 13.7678 12.4158 13.5064 12.4295 13.3055C12.4427 13.1112 12.4659 13.0287 12.4851 12.9822L11.0993 12.4082C10.9917 12.6679 10.9514 12.9327 10.933 13.2034C10.915 13.4672 10.9154 13.7883 10.9154 14.1663H12.4154ZM12.4072 11.1003C11.8151 11.3456 11.3446 11.816 11.0993 12.4082L12.4851 12.9822C12.5782 12.7576 12.7566 12.5792 12.9812 12.4861L12.4072 11.1003Z" fill="#464646"/>
</svg>
