<svg width="17" height="18" viewBox="0 0 17 18" fill="none" xmlns="http://www.w3.org/2000/svg">
<path opacity="0.972" fill-rule="evenodd" clip-rule="evenodd" d="M2.04041 0.503106C5.7895 0.494824 9.53853 0.503106 13.2876 0.527944C14.3907 0.768052 15.0626 1.43869 15.3031 2.5399C15.3363 4.17926 15.3363 5.81863 15.3031 7.458C15.0419 7.94757 14.6686 8.05518 14.1834 7.78091C14.1253 7.68985 14.0673 7.59874 14.0092 7.50768C13.9926 5.93453 13.976 4.36143 13.9594 2.78829C13.8864 2.38396 13.6624 2.09419 13.2876 1.91892C9.60706 1.83676 5.92436 1.82016 2.23948 1.86925C1.8623 1.96403 1.58859 2.18758 1.41834 2.5399C1.36081 4.6904 1.33592 6.84309 1.34369 8.99801C1.33592 11.1529 1.36081 13.3056 1.41834 15.4561C1.58859 15.8084 1.8623 16.032 2.23948 16.1268C4.13059 16.1433 6.02171 16.1599 7.91282 16.1765C8.37375 16.421 8.4816 16.777 8.2363 17.2445C8.15016 17.3497 8.04231 17.4242 7.91282 17.4681C5.87052 17.5163 3.8301 17.4998 1.79158 17.4184C0.817908 17.1089 0.229015 16.4548 0.0248843 15.4561C-0.00829477 11.1507 -0.00829477 6.84532 0.0248843 2.5399C0.274422 1.43804 0.946255 0.7591 2.04041 0.503106Z" fill="#464646"/>
<path opacity="0.979" fill-rule="evenodd" clip-rule="evenodd" d="M2.88763 6.216C5.75754 6.20771 8.62736 6.216 11.4972 6.24084C11.7352 6.37626 11.8513 6.58327 11.8455 6.86181C11.8513 7.14036 11.7352 7.34737 11.4972 7.48279C8.62731 7.51592 5.7575 7.51592 2.88763 7.48279C2.64965 7.34737 2.53349 7.14036 2.53927 6.86181C2.54001 6.57855 2.65612 6.36325 2.88763 6.216Z" fill="#464646"/>
<path opacity="0.97" fill-rule="evenodd" clip-rule="evenodd" d="M12.6908 8.89901C14.5485 8.83234 15.5936 9.71824 15.8261 11.5568C15.7925 12.2874 15.5271 12.9167 15.0298 13.4445C16.4088 14.2682 17.0641 15.4853 16.9956 17.0958C16.8259 17.4413 16.5522 17.5655 16.1744 17.4684C15.9837 17.4105 15.8593 17.2863 15.8012 17.0958C15.7612 15.7323 15.1059 14.8133 13.8354 14.3387C12.3845 14.0735 11.3311 14.5951 10.6753 15.9036C10.5513 16.2742 10.4849 16.6551 10.4762 17.0462C10.2512 17.5019 9.91112 17.6095 9.45601 17.3691C9.28605 17.2082 9.20309 17.0095 9.20717 16.7729C9.31143 15.3218 9.97502 14.2122 11.1978 13.4445C10.3922 12.512 10.2345 11.477 10.725 10.3397C11.1676 9.56086 11.8228 9.08063 12.6908 8.89901ZM13.0889 10.141C14.2399 10.3362 14.6795 10.9986 14.4077 12.1281C13.8874 12.9804 13.1823 13.1709 12.2927 12.6994C11.6502 12.0749 11.5755 11.3877 12.0687 10.6377C12.3546 10.3527 12.6947 10.1871 13.0889 10.141Z" fill="#464646"/>
<path opacity="0.946" fill-rule="evenodd" clip-rule="evenodd" d="M2.98709 9.04803C4.62947 9.03974 6.27176 9.04803 7.91394 9.07287C8.06563 9.10298 8.19004 9.17749 8.28719 9.29642C8.36064 9.52375 8.37726 9.75559 8.33695 9.99191C8.27499 10.2026 8.13401 10.3268 7.91394 10.3645C6.27166 10.3976 4.62937 10.3976 2.98709 10.3645C2.68327 10.2594 2.53397 10.0441 2.5392 9.71868C2.54422 9.39205 2.69352 9.1685 2.98709 9.04803Z" fill="#464646"/>
</svg>
