<svg width="15" height="16" viewBox="0 0 15 16" fill="none" xmlns="http://www.w3.org/2000/svg">
<path d="M7.5131 2.40234C5.44435 2.40234 3.7631 4.08359 3.7631 6.15234V7.95859C3.7631 8.33984 3.6006 8.92109 3.40685 9.24609L2.6881 10.4398C2.24435 11.1773 2.5506 11.9961 3.3631 12.2711C6.05685 13.1711 8.9631 13.1711 11.6569 12.2711C12.4131 12.0211 12.7444 11.1273 12.3319 10.4398L11.6131 9.24609C11.4256 8.92109 11.2631 8.33984 11.2631 7.95859V6.15234C11.2631 4.08984 9.5756 2.40234 7.5131 2.40234Z" stroke="#222222" stroke-width="1.5" stroke-miterlimit="10" stroke-linecap="round"/>
<path d="M8.66797 2.58437C8.47422 2.52812 8.27422 2.48437 8.06797 2.45937C7.46797 2.38437 6.89297 2.42812 6.35547 2.58437C6.53672 2.12187 6.98672 1.79688 7.51172 1.79688C8.03672 1.79688 8.48672 2.12187 8.66797 2.58437Z" stroke="#222222" stroke-width="1.5" stroke-miterlimit="10" stroke-linecap="round" stroke-linejoin="round"/>
<path d="M9.39062 12.4961C9.39062 13.5273 8.54687 14.3711 7.51562 14.3711C7.00313 14.3711 6.52812 14.1586 6.19062 13.8211C5.85312 13.4836 5.64062 13.0086 5.64062 12.4961" stroke="#222222" stroke-width="1.5" stroke-miterlimit="10"/>
<circle cx="12.332" cy="2.91699" r="2" fill="#FF0000" stroke="#222222"/>
</svg>
